#!OML:ASF X:\für Bonn\!DataBase\2005_08_11_Bastian_Final\c3d\Bastian.ASF
:FULLY-SPECIFIED
:DEGREES
124
root 22.5093 16.1894 -4.91655 540.764 -108.119 -149.178
lowerback 74.3139 -6.71773 12.805
upperback 16.2942 -1.45848 -1.30458
thorax -1.83265 -0.518518 -5.84288
lowerneck -7.8614 -5.12991 -1.70287
upperneck -20.8607 -6.82422 5.2147
head -4.77405 -3.9782 2.06061
rclavicle -3.81667e-014 2.54444e-014
rhumerus 62.3536 -15.6434 -50.5575
rradius 17.0549
rwrist -4.03014
rhand -39.8682 -4.59223
rfingers 7.12502
rthumb -12.8407 -34.1773
lclavicle -3.81667e-014 2.54444e-014
lhumerus -9.89213 -27.0778 82.4824
lradius 55.325
lwrist 34.4617
lhand -13.2577 -16.0461
lfingers 7.12502
lthumb 12.8448 13.5387
rfemur -73.5523 -13.2476 20.0796
rtibia 64.8716
rfoot -14.3082 -0.760009
rtoes 4.12466
lfemur -66.6376 -3.39456 -32.2776
ltibia 49.3097
lfoot -4.5368 -4.00621
ltoes -18.3173
125
root 22.4941 16.1927 -4.91654 541.1 -108.281 -149.468
lowerback 74.4168 -6.68223 12.785
upperback 16.2332 -1.39972 -1.29637
thorax -1.88892 -0.495105 -5.84523
lowerneck -7.8569 -5.14449 -1.66874
upperneck -20.8499 -6.84549 5.20636
head -4.77233 -3.98982 2.05243
rclavicle 1.27222e-014 -2.70347e-014
rhumerus 62.0995 -15.7265 -50.4653
rradius 17.0904
rwrist -4.19409
rhand -39.8878 -4.65586
rfingers 7.12502
rthumb -12.8597 -34.2397
lclavicle 1.27222e-014 -2.70347e-014
lhumerus -9.93078 -27.2666 82.5672
lradius 55.3111
lwrist 34.4552
lhand -13.3144 -16.065
lfingers 7.12502
lthumb 12.7902 13.5232
rfemur -73.5014 -13.3017 20.111
rtibia 64.862
rfoot -14.3797 -0.90404
rtoes 3.96601
lfemur -66.6181 -3.45203 -32.26
ltibia 49.2809
lfoot -4.55216 -4.13192
ltoes -18.6398
126
root 22.4795 16.1976 -4.91728 541.586 -108.427 -149.931
lowerback 74.5211 -6.60881 12.7577
upperback 16.1768 -1.30766 -1.25489
thorax -1.93599 -0.46365 -5.81951
lowerneck -7.86998 -5.16364 -1.65152
upperneck -20.8212 -6.87433 5.19213
head -4.76167 -4.00345 2.04415
rclavicle -5.08889e-014 3.02153e-014
rhumerus 61.883 -15.8234 -50.456
rradius 17.1519
rwrist -4.29799
rhand -39.93 -4.63161
rfingers 7.12502
rthumb -12.9003 -34.2129
lclavicle -5.08889e-014 3.02153e-014
lhumerus -9.97248 -27.3891 82.6909
lradius 55.3205
lwrist 34.4149
lhand -13.3541 -16.0556
lfingers 7.12502
lthumb 12.7518 13.535
rfemur -73.4203 -13.3149 20.177
rtibia 64.8317
rfoot -14.4464 -1.02764
rtoes 4.12087
lfemur -66.5858 -3.53154 -32.1268
ltibia 49.2431
lfoot -4.55098 -4.2131
ltoes -18.4128
127
root 22.4653 16.2029 -4.91701 541.893 -108.585 -150.217
lowerback 74.6129 -6.53443 12.6998
upperback 16.1218 -1.23507 -1.215
thorax -1.98791 -0.441528 -5.77698
lowerneck -7.81919 -5.17912 -1.61289
upperneck -20.8448 -6.90154 5.16086
head -4.77902 -4.01827 2.03084
rclavicle 9.54166e-014 0
rhumerus 61.6314 -15.8844 -50.3855
rradius 17.2359
rwrist -4.42241
rhand -39.9187 -4.73307
rfingers 7.12502
rthumb -12.8895 -34.315
lclavicle 9.54166e-014 0
lhumerus -10.0466 -27.5106 82.8317
lradius 55.3219
lwrist 34.3265
lhand -13.4293 -16.0966
lfingers 7.12502
lthumb 12.6793 13.4985
rfemur -73.3263 -13.3439 20.1727
rtibia 64.7973
rfoot -14.5064 -1.17205
rtoes 4.13338
lfemur -66.5219 -3.61241 -32.0771
ltibia 49.1891
lfoot -4.5827 -4.29587
ltoes -18.5969
128
root 22.4521 16.2079 -4.91688 542.389 -108.746 -150.688
lowerback 74.6412 -6.47206 12.6959
upperback 16.1107 -1.15773 -1.18249
thorax -1.99027 -0.410652 -5.76764
lowerneck -7.84524 -5.19667 -1.54918
upperneck -20.8402 -6.93131 5.1395
head -4.77591 -4.03652 2.01324
rclavicle -3.49861e-014 3.18055e-015
rhumerus 61.4572 -16.03 -50.4748
rradius 17.3086
rwrist -4.40438
rhand -39.9116 -4.79466
rfingers 7.12502
rthumb -12.8825 -34.3771
lclavicle -3.49861e-014 3.18055e-015
lhumerus -10.0459 -27.6783 82.9038
lradius 55.3452
lwrist 34.3186
lhand -13.5218 -16.1499
lfingers 7.12502
lthumb 12.5902 13.4507
rfemur -73.2408 -13.3767 20.2524
rtibia 64.7501
rfoot -14.5611 -1.30829
rtoes 4.1397
lfemur -66.4939 -3.66867 -31.9754
ltibia 49.1345
lfoot -4.5617 -4.40788
ltoes -18.5886
129
root 22.4398 16.215 -4.91651 542.783 -108.937 -151.106
lowerback 74.7168 -6.42909 12.6974
upperback 16.0912 -1.08603 -1.134
thorax -1.99594 -0.384444 -5.7378
lowerneck -7.84036 -5.21457 -1.48134
upperneck -20.8608 -6.96702 5.08719
head -4.78694 -4.05706 1.98732
rclavicle 1.27222e-014 3.65764e-014
rhumerus 61.2343 -16.1316 -50.4219
rradius 17.3828
rwrist -4.51251
rhand -39.9319 -4.83203
rfingers 7.12502
rthumb -12.9021 -34.4132
lclavicle 1.27222e-014 3.65764e-014
lhumerus -10.0528 -27.8587 83.0052
lradius 55.3827
lwrist 34.2705
lhand -13.6204 -16.1208
lfingers 7.12502
lthumb 12.4951 13.4856
rfemur -73.0983 -13.446 20.3011
rtibia 64.6985
rfoot -14.6192 -1.43942
rtoes 4.15387
lfemur -66.3899 -3.75961 -31.8791
ltibia 49.0664
lfoot -4.55081 -4.5074
ltoes -18.567
130
root 22.4276 16.2217 -4.91574 543.266 -109.104 -151.609
lowerback 74.7425 -6.33594 12.6784
upperback 16.1045 -0.988054 -1.04533
thorax -1.96772 -0.352818 -5.66617
lowerneck -7.83044 -5.22922 -1.41876
upperneck -20.9188 -7.00893 4.97905
head -4.81268 -4.0789 1.94655
rclavicle -6.36111e-015 -1.74931e-014
rhumerus 61.0237 -16.1899 -50.2295
rradius 17.4848
rwrist -4.72163
rhand -39.8522 -4.99894
rfingers 7.12502
rthumb -12.8253 -34.5849
lclavicle -6.36111e-015 -1.74931e-014
lhumerus -10.006 -27.9878 83.1395
lradius 55.3755
lwrist 34.2549
lhand -13.714 -16.1417
lfingers 7.12502
lthumb 12.4048 13.4702
rfemur -72.9626 -13.5007 20.4068
rtibia 64.6391
rfoot -14.6756 -1.579
rtoes 4.0035
lfemur -66.3017 -3.82833 -31.7576
ltibia 49.0012
lfoot -4.55259 -4.57934
ltoes -18.7965
131
root 22.4157 16.2284 -4.91459 543.543 -109.282 -151.922
lowerback 74.7739 -6.25523 12.6441
upperback 16.133 -0.917341 -0.98717
thorax -1.9265 -0.326869 -5.61374
lowerneck -7.79188 -5.25203 -1.29952
upperneck -21.0236 -7.06396 4.87305
head -4.85936 -4.11318 1.89988
rclavicle -3.18055e-014 -2.54444e-014
rhumerus 60.837 -16.3364 -50.2549
rradius 17.6136
rwrist -4.75975
rhand -39.7638 -5.13299
rfingers 7.12502
rthumb -12.7401 -34.7243
lclavicle -3.18055e-014 -2.54444e-014
lhumerus -9.93558 -28.1368 83.2338
lradius 55.3678
lwrist 34.2252
lhand -13.8061 -16.1647
lfingers 7.12502
lthumb 12.3161 13.4526
rfemur -72.8094 -13.593 20.4452
rtibia 64.5818
rfoot -14.7495 -1.64952
rtoes 4.07841
lfemur -66.1774 -3.91286 -31.6926
ltibia 48.9261
lfoot -4.54298 -4.66948
ltoes -18.7755
132
root 22.404 16.2357 -4.91436 543.968 -109.448 -152.378
lowerback 74.774 -6.12593 12.5933
upperback 16.167 -0.810398 -0.885106
thorax -1.88002 -0.293782 -5.51952
lowerneck -7.75616 -5.25382 -1.21986
upperneck -21.098 -7.08732 4.76819
head -4.89541 -4.12717 1.85851
rclavicle -1.27222e-013 -5.725e-014
rhumerus 60.6528 -16.4091 -50.1177
rradius 17.711
rwrist -4.9658
rhand -39.6596 -5.17771
rfingers 7.12502
rthumb -12.6396 -34.7753
lclavicle -1.27222e-013 -5.725e-014
lhumerus -9.87272 -28.2399 83.3742
lradius 55.3732
lwrist 34.1788
lhand -13.9019 -16.1301
lfingers 7.12502
lthumb 12.2236 13.4927
rfemur -72.6568 -13.633 20.517
rtibia 64.5076
rfoot -14.7917 -1.77786
rtoes 4.09376
lfemur -66.0768 -3.97949 -31.5706
ltibia 48.856
lfoot -4.52515 -4.7506
ltoes -18.6038
133
root 22.3932 16.2429 -4.91314 544.322 -109.627 -152.767
lowerback 74.7866 -6.00689 12.5438
upperback 16.1647 -0.702449 -0.785902
thorax -1.87459 -0.262333 -5.42833
lowerneck -7.54872 -5.27153 -1.12785
upperneck -21.2448 -7.1303 4.67231
head -4.98091 -4.15327 1.82603
rclavicle -4.45278e-014 1.59028e-014
rhumerus 60.3852 -16.4468 -49.9683
rradius 17.8174
rwrist -5.15033
rhand -39.5373 -5.16735
rfingers 7.12502
rthumb -12.5217 -34.7722
lclavicle -4.45278e-014 1.59028e-014
lhumerus -9.85422 -28.392 83.5269
lradius 55.3517
lwrist 34.1624
lhand -13.9606 -16.1566
lfingers 7.12502
lthumb 12.1671 13.4696
rfemur -72.5026 -13.7196 20.5893
rtibia 64.4324
rfoot -14.853 -1.87339
rtoes 4.01473
lfemur -65.9597 -4.03807 -31.5031
ltibia 48.7741
lfoot -4.51236 -4.86371
ltoes -18.7752
134
root 22.3824 16.2508 -4.91203 544.821 -109.781 -153.314
lowerback 74.7874 -5.86279 12.4959
upperback 16.1743 -0.574604 -0.677855
thorax -1.85543 -0.224157 -5.33593
lowerneck -7.39442 -5.27952 -0.984036
upperneck -21.3237 -7.17324 4.50601
head -5.04193 -4.17727 1.7596
rclavicle -2.22639e-014 3.02153e-014
rhumerus 60.1975 -16.5525 -50.0404
rradius 17.9323
rwrist -5.12194
rhand -39.3634 -5.08805
rfingers 7.12502
rthumb -12.354 -34.703
lclavicle -2.22639e-014 3.02153e-014
lhumerus -9.81934 -28.5006 83.6892
lradius 55.3295
lwrist 34.122
lhand -14.0508 -16.1249
lfingers 7.12502
lthumb 12.0801 13.5064
rfemur -72.3263 -13.7658 20.7164
rtibia 64.3361
rfoot -14.9121 -1.97931
rtoes 4.04226
lfemur -65.8535 -4.11012 -31.3261
ltibia 48.6967
lfoot -4.51308 -4.92827
ltoes -18.7516
